<svg width="40px" height="40px" viewBox="0 0 40 40" version="1.1" xmlns="http://www.w3.org/2000/svg" xmlns:xlink="http://www.w3.org/1999/xlink">
    <!-- Generator: Sketch 63.1 (92452) - https://sketch.com -->
    <title>pinterest</title>
    <desc>Created with Sketch.</desc>
    <defs>
        <rect id="path-1" x="0" y="0" width="1440" height="348"></rect>
        <filter x="-0.6%" y="-1.9%" width="101.2%" height="104.9%" filterUnits="objectBoundingBox" id="filter-2">
            <feOffset dx="0" dy="2" in="SourceAlpha" result="shadowOffsetOuter1"></feOffset>
            <feGaussianBlur stdDeviation="2.5" in="shadowOffsetOuter1" result="shadowBlurOuter1"></feGaussianBlur>
            <feColorMatrix values="0 0 0 0 0   0 0 0 0 0   0 0 0 0 0  0 0 0 0.05 0" type="matrix" in="shadowBlurOuter1"></feColorMatrix>
        </filter>
        <linearGradient x1="0%" y1="0%" x2="100%" y2="100%" id="linearGradient-3">
            <stop stop-color="#0069D2" offset="0%"></stop>
            <stop stop-color="#28E1A5" offset="100%"></stop>
        </linearGradient>
        <path d="M13,17.2 C12,17.2 11,16.8 10.4,16.1 L9.2,20.1 L9.1,20.4 L9.1,20.4 C8.8,20.8 8.4,21 7.9,21 C7.1,21 6.5,20.4 6.5,19.6 C6.5,19.5 6.5,19.5 6.5,19.4 L6.5,19.4 L6.6,19.2 L8.9,12.3 C8.9,12.3 8.7,11.5 8.7,10.5 C8.7,8.4 9.9,7.7 10.8,7.7 C11.7,7.7 12.6,8 12.6,9.3 C12.6,11 11.5,11.8 11.5,13 C11.5,13.9 12.3,14.7 13.2,14.7 C16.1,14.7 17.2,12.5 17.2,10.5 C17.2,7.8 14.8,5.6 12,5.6 C9.1,5.6 6.8,7.8 6.8,10.5 C6.8,11.3 7,12.2 7.5,12.9 C7.6,13.1 7.7,13.3 7.7,13.5 C7.7,14.2 7.1,14.7 6.5,14.7 C6.1,14.7 5.7,14.5 5.4,14.1 C4.3,13 4,11.7 4,10.4 C4,6.3 7.5,3 11.8,3 C16.1,3 19.6,6.3 19.6,10.4 C19.5,13.7 17.5,17.2 13,17.2" id="path-4"></path>
    </defs>
    <g id="Page-1" stroke="none" stroke-width="1" fill="none" fill-rule="evenodd">
        <g id="Artboard" transform="translate(-628.000000, -2494.000000)">
            <g id="Footer" transform="translate(0.000000, 2268.000000)">
                <g id="bg">
                    <use fill="black" fill-opacity="1" filter="url(#filter-2)" xlink:href="#path-1"></use>
                    <use fill="#2E3134" fill-rule="evenodd" xlink:href="#path-1"></use>
                </g>
                <g id="social" transform="translate(0.000000, 208.000000)">
                    <g id="icons" transform="translate(556.000000, 18.000000)">
                        <g id="pinterest" transform="translate(72.000000, 0.000000)">
                            <path d="M20,2 C10.0743918,2 2,10.0743918 2,20 C2,29.9256082 10.0743918,38 20,38 C29.9256082,38 38,29.9256082 38,20 C38,10.0743918 29.9256082,2 20,2 M20,40 C8.97165049,40 0,31.0283495 0,20 C0,8.97165049 8.97165049,0 20,0 C31.0283495,0 40,8.97165049 40,20 C40,31.0283495 31.0283495,40 20,40" id="Fill-16" fill="url(#linearGradient-3)" fill-rule="nonzero"></path>
                            <g id="Social-/-Social-Media-/-pinterest" transform="translate(8.000000, 8.000000)">
                                <mask id="mask-5" fill="white">
                                    <use xlink:href="#path-4"></use>
                                </mask>
                                <use id="mask" fill="#2E3134" fill-rule="nonzero" xlink:href="#path-4"></use>
                                <g id="Fill-/-White" mask="url(#mask-5)" fill="#FFFFFF" fill-rule="nonzero">
                                    <polygon id="ui/color/white" points="0 0 24 0 24 24 0 24"></polygon>
                                </g>
                            </g>
                        </g>
                    </g>
                </g>
            </g>
        </g>
    </g>
</svg>